<?xml version="1.0" encoding="utf-8"?>
<!-- Generator: Adobe Illustrator 19.1.1, SVG Export Plug-In . SVG Version: 6.00 Build 0)  -->
<svg version="1.1" id="Capa_1" xmlns="http://www.w3.org/2000/svg" xmlns:xlink="http://www.w3.org/1999/xlink" x="0px" y="0px"
	 viewBox="0 0 1000 1000" style="enable-background:new 0 0 1000 1000;" xml:space="preserve">
<g>
	<path d="M264.4,440.3l-78.9-3.9c0,0,22.7,15.5,12.6,22.3c0,0-92.9,91-142.3,85.2c0,0,27.6,90.2,185.9-35.2c0,0,8.2,0.9,12.6,13.9
		C254.2,522.6,269.2,454.8,264.4,440.3z"/>
	<path d="M180.2,452.4l-21.8-19.4c0,0-5.8-13.1,8.2-12.6l26.1,1.9c0,0-49.4-36.8-108.9-4.4c0,0-54.8,34.2-45.6,100
		c0,0,11.8,13.1,19.5,10.7l-0.2-72.4l48.6,0.5l0,54.3l2.5-1.5l-0.2-65.1l49.5,0.2l-0.5,30L180.2,452.4z"/>
	<path d="M98.5,516.1c-5.2,7.5-34,13-34,13v-64.8h34v49.9C98.5,514.1,98.8,515.7,98.5,516.1z"/>
	<path d="M150.3,479.2c-5.2,5.2-34,26.6-34,26.6V452h34v25.8C150.3,477.9,150.6,478.9,150.3,479.2z"/>
	<path d="M84.9,589.1c0,0,100.3,47.7,142.8-52C227.7,537,156.3,596,84.9,589.1z"/>
	<circle cx="595.2" cy="427.9" r="30.4"/>
	<circle cx="775.2" cy="588.1" r="9.8"/>
	<path d="M461,482.8c0,0,5.2-53.1-86.6-44.9h-58.3v39.3h13v76.2h-13V593h77.6v-39.3l-12.6,0.3l-0.3-14.7
		C380.7,539.3,468.9,555,461,482.8z M410.8,490.1c0.7,18.5-30.1,12.3-30.1,12.3v-24.6C414.6,471,410.8,490.1,410.8,490.1z"/>
	<polygon points="530.9,553.4 530.9,408.1 465.8,408.1 465.8,448.1 479.5,448.4 479.8,553.7 465.8,553.4 465.8,593 544.1,593 
		544.1,553.4 	"/>
	<path d="M556.7,464.5h63.6v88.9H634V593h-77.2c0,0-0.7-39.6,0-39.6c0.7,0,12.6-0.6,12.6-0.6l0.7-47.5h-13.6L556.7,464.5z"/>
	<path d="M715,403.7c0,0-62.2-0.7-55.4,60.8H647v40h13.3l-0.3,49.2h-13V593h81.7l-0.3-39.6l-17.6-0.1l0.4-48.7l17.5,0l-0.5-39.2
		h-16.5v-18.9c0-5.2,4-9,9-9h5.7c0,0,7.2,1.1,9.2,8.6h39v-25.6C774.4,420.4,755.3,401.3,715,403.7z"/>
	<g>
		<path d="M899.3,586.4l7.5,1v8.7h-29.9v-8.7l7.5-1v-24.1c0-1.9-1.9-3.9-5-3.9h-3.7c-5.5,0-9.9,2.9-9.9,7.2v20.7l7.5,1v8.7h-29.9
			v-8.7l7.5-1v-24.1c0-1.9-2.1-3.9-5-3.9h-3.7c-5.6,0-9.9,2.9-9.9,7.2v20.7l7.5,1v8.7h-29.9v-8.7l7.5-1v-28.9l-7.5-1v-8.7h18.7
			l2.5,2.9c2.5-1.4,6.8-2.9,11.2-2.9h5c5.7,0,10,1,13.7,3.9c4.4-2.9,9.3-3.9,14.9-3.9h5c10.2,0,18.7,5.8,18.7,13.5V586.4z"/>
	</g>
	<g>
		<path d="M936.7,580.9l-6.1,6.1l4.5,0.9v8.1h-24.5v-8.1l5.6-0.9l13.4-13.5l-13.4-13.5l-5.6-0.9v-8.1H935v8.1l-4.5,0.9l6.1,6.2
			l6.1-6.2l-4.5-0.9v-8.1h24.5v8.1l-5.6,0.9l-13.4,13.5l13.4,13.5l5.6,0.9v8.1h-24.5v-8.1l4.5-0.9L936.7,580.9z"/>
	</g>
</g>
</svg>
